<?xml version="1.0" encoding="UTF-8"?>
<svg width="647px" height="134px" viewBox="0 0 647 134" version="1.1" xmlns="http://www.w3.org/2000/svg" xmlns:xlink="http://www.w3.org/1999/xlink">
    <!-- Generator: Sketch 52.2 (67145) - http://www.bohemiancoding.com/sketch -->
    <title>Fission Full Color</title>
    <desc>Created with Sketch.</desc>
    <defs>
        <linearGradient x1="25.5005787%" y1="13.6811756%" x2="73.1200638%" y2="84.3092438%" id="linearGradient-1">
            <stop stop-color="#FF5274" offset="0%"></stop>
            <stop stop-color="#6446FA" offset="100%"></stop>
        </linearGradient>
    </defs>
    <g id="Page-1" stroke="none" stroke-width="1" fill="none" fill-rule="evenodd">
        <g id="Fission-Full-Color" fill-rule="nonzero">
            <path d="M179.42398,46.2006579 L196.812876,46.2006579 L196.812876,24.8484808 C196.812876,15.8815572 201.309769,9.68893044 211.823804,9.68893044 L238.179623,9.68893044 L238.179623,27.5236955 L219.552202,27.5236955 C216.876974,27.5236955 215.53938,29.0099111 215.53938,31.9823868 L215.53938,46.2006579 L274.988597,46.2006579 L274.988597,119.917687 L256.262093,119.917687 L256.262093,64.035423 L215.53938,64.035423 L215.53938,119.917687 L196.812876,119.917687 L196.812876,64.035423 L179.42398,64.035423 L179.42398,46.2006579 Z M256.439125,9.68893044 L275.017006,9.68893044 L275.017006,28.2668108 L256.439125,28.2668108 L256.439125,9.68893044 Z M310.661958,67.0078838 C310.661958,69.3858644 311.900471,71.0950123 314.377534,72.1353788 C316.854597,73.1757453 321.362784,74.0427044 327.902231,74.736282 C335.432503,75.5289422 341.575527,77.7830358 346.331488,81.4986305 C351.087449,85.2142251 353.465394,90.3912093 353.465394,97.0297384 L353.465394,97.9214767 C353.465394,105.253583 350.790206,111.099365 345.43975,115.458996 C340.089293,119.818627 332.559135,121.99841 322.849047,121.99841 C317.102261,121.99841 312.19775,121.255302 308.135366,119.769064 C304.072983,118.282826 300.704227,116.425057 298.028999,114.1957 C295.353771,111.966343 293.29784,109.489317 291.861143,106.764548 C290.424446,104.039778 289.458406,101.389361 288.962994,98.8132149 L306.203267,93.1655393 C306.995927,96.3361801 308.655534,99.1104491 311.182138,101.48843 C313.708743,103.86641 317.597674,105.055383 322.849047,105.055383 C327.505926,105.055383 330.701289,104.337045 332.435234,102.900349 C334.169178,101.463652 335.036137,99.9031256 335.036137,98.2187227 C335.036137,97.2278975 334.813204,96.3113979 334.367333,95.4691965 C333.921462,94.626995 333.104043,93.8343467 331.915053,93.0912278 C330.726063,92.3481089 329.115996,91.7288524 327.084804,91.2334397 C325.053612,90.7380271 322.502276,90.341703 319.430717,90.0444554 C311.107785,89.3508777 304.494126,87.1958652 299.589541,83.5793531 C294.684956,79.9628409 292.232701,74.6372352 292.232701,67.602376 L292.232701,66.7106377 C292.232701,63.0445844 293.025349,59.8244506 294.610669,57.05014 C296.19599,54.2758293 298.276691,51.9226547 300.852837,49.9905455 C303.428983,48.0584362 306.401414,46.5969909 309.77022,45.6061657 C313.139025,44.6153405 316.606862,44.1199353 320.173833,44.1199353 C324.830711,44.1199353 328.868263,44.6896512 332.28661,45.8291003 C335.704958,46.9685493 338.603078,48.4547649 340.981058,50.2877915 C343.359039,52.1208182 345.291119,54.1519795 346.777357,56.3813363 C348.263595,58.6106931 349.403027,60.7657056 350.195687,62.8464386 L333.25266,69.6830986 C332.360918,67.0078704 330.825161,64.9023984 328.645346,63.3666193 C326.46553,61.8308402 323.641721,61.0629621 320.173833,61.0629621 C317.003192,61.0629621 314.625247,61.6326781 313.039926,62.7721271 C311.454606,63.9115761 310.661958,65.3234809 310.661958,67.0078838 Z M383.041379,67.0078838 C383.041379,69.3858644 384.279892,71.0950123 386.756956,72.1353788 C389.234019,73.1757453 393.742206,74.0427044 400.281652,74.736282 C407.811924,75.5289422 413.954949,77.7830358 418.71091,81.4986305 C423.466871,85.2142251 425.844816,90.3912093 425.844816,97.0297384 L425.844816,97.9214767 C425.844816,105.253583 423.169628,111.099365 417.819171,115.458996 C412.468715,119.818627 404.938556,121.99841 395.228469,121.99841 C389.481683,121.99841 384.577171,121.255302 380.514788,119.769064 C376.452404,118.282826 373.083649,116.425057 370.408421,114.1957 C367.733193,111.966343 365.677261,109.489317 364.240565,106.764548 C362.803868,104.039778 361.837828,101.389361 361.342415,98.8132149 L378.582688,93.1655393 C379.375348,96.3361801 381.034956,99.1104491 383.56156,101.48843 C386.088164,103.86641 389.977095,105.055383 395.228469,105.055383 C399.885348,105.055383 403.080711,104.337045 404.814655,102.900349 C406.548599,101.463652 407.415558,99.9031256 407.415558,98.2187227 C407.415558,97.2278975 407.192626,96.3113979 406.746755,95.4691965 C406.300883,94.626995 405.483465,93.8343467 404.294475,93.0912278 C403.105484,92.3481089 401.495417,91.7288524 399.464226,91.2334397 C397.433034,90.7380271 394.881697,90.341703 391.810139,90.0444554 C383.487207,89.3508777 376.873548,87.1958652 371.968963,83.5793531 C367.064378,79.9628409 364.612122,74.6372352 364.612122,67.602376 L364.612122,66.7106377 C364.612122,63.0445844 365.404771,59.8244506 366.990091,57.05014 C368.575411,54.2758293 370.656113,51.9226547 373.232259,49.9905455 C375.808404,48.0584362 378.780835,46.5969909 382.149641,45.6061657 C385.518447,44.6153405 388.986283,44.1199353 392.553254,44.1199353 C397.210133,44.1199353 401.247685,44.6896512 404.666032,45.8291003 C408.084379,46.9685493 410.9825,48.4547649 413.36048,50.2877915 C415.738461,52.1208182 417.670541,54.1519795 419.156779,56.3813363 C420.643017,58.6106931 421.782449,60.7657056 422.575109,62.8464386 L405.632082,69.6830986 C404.740339,67.0078704 403.204583,64.9023984 401.024768,63.3666193 C398.844952,61.8308402 396.021143,61.0629621 392.553254,61.0629621 C389.382613,61.0629621 387.004669,61.6326781 385.419348,62.7721271 C383.834028,63.9115761 383.041379,65.3234809 383.041379,67.0078838 Z M453.232464,64.035423 L435.899131,64.035423 L435.899131,46.2006579 L471.958968,46.2006579 L471.958968,119.946848 L453.232464,119.917687 L453.232464,64.035423 Z M453.398799,9.68893044 L471.976679,9.68893044 L471.976679,28.2668108 L453.398799,28.2668108 L453.398799,9.68893044 Z M564.415018,83.9509107 C564.415018,90.0940271 563.374667,95.5187139 561.293934,100.225134 C559.213201,104.931554 556.389392,108.894795 552.822421,112.114977 C549.25545,115.335159 545.168357,117.787415 540.56102,119.471818 C535.953683,121.156221 531.123482,121.99841 526.070273,121.99841 C521.017065,121.99841 516.186864,121.156221 511.579527,119.471818 C506.972189,117.787415 502.885097,115.335159 499.318126,112.114977 C495.751155,108.894795 492.927345,104.931554 490.846612,100.225134 C488.765879,95.5187139 487.725528,90.0940271 487.725528,83.9509107 L487.725528,82.1674342 C487.725528,76.1234002 488.765879,70.7482539 490.846612,66.041834 C492.927345,61.3354142 495.751155,57.3474024 499.318126,54.0776791 C502.885097,50.8079558 506.972189,48.3309299 511.579527,46.646527 C516.186864,44.9621241 521.017065,44.1199353 526.070273,44.1199353 C531.123482,44.1199353 535.953683,44.9621241 540.56102,46.646527 C545.168357,48.3309299 549.25545,50.8079558 552.822421,54.0776791 C556.389392,57.3474024 559.213201,61.3354142 561.293934,66.041834 C563.374667,70.7482539 564.415018,76.1234002 564.415018,82.1674342 L564.415018,83.9509107 Z M526.070273,104.163644 C528.745502,104.163644 531.272068,103.71778 533.650049,102.826037 C536.028029,101.934294 538.108731,100.646241 539.892216,98.961838 C541.675702,97.2774351 543.087607,95.2215035 544.127973,92.7939817 C545.16834,90.3664599 545.688515,87.6169611 545.688515,84.5454028 L545.688515,81.572942 C545.688515,78.5013838 545.16834,75.751885 544.127973,73.3243631 C543.087607,70.8968413 541.675702,68.8409098 539.892216,67.1565069 C538.108731,65.472104 536.028029,64.1840505 533.650049,63.2923078 C531.272068,62.400565 528.745502,61.9547004 526.070273,61.9547004 C523.395045,61.9547004 520.868479,62.400565 518.490498,63.2923078 C516.112518,64.1840505 514.031816,65.472104 512.24833,67.1565069 C510.464845,68.8409098 509.05294,70.8968413 508.012574,73.3243631 C506.972207,75.751885 506.452032,78.5013838 506.452032,81.572942 L506.452032,84.5454028 C506.452032,87.6169611 506.972207,90.3664599 508.012574,92.7939817 C509.05294,95.2215035 510.464845,97.2774351 512.24833,98.961838 C514.031816,100.646241 516.112518,101.934294 518.490498,102.826037 C520.868479,103.71778 523.395045,104.163644 526.070273,104.163644 Z M596.488029,119.917687 L577.761526,119.917687 L577.761526,46.2006579 L596.488029,46.2006579 L596.488029,57.198763 L599.163244,57.198763 C600.847647,53.037297 603.572376,49.8171633 607.337511,47.5382653 C611.102647,45.2593672 615.511754,44.1199353 620.564962,44.1199353 C624.131933,44.1199353 627.475918,44.6896512 630.597018,45.8291003 C633.718117,46.9685493 636.467616,48.7272377 638.845596,51.1052183 C641.223577,53.4831988 643.081346,56.5051705 644.418961,60.1712239 C645.756575,63.8372772 646.425372,68.1968429 646.425372,73.2500516 L646.425372,119.917687 L627.698868,119.917687 L627.698868,78.005989 C627.698868,72.7546152 626.435585,68.6179819 623.908981,65.5959649 C621.382376,62.5739479 617.741148,61.0629621 612.985187,61.0629621 C607.436566,61.0629621 603.299932,62.9207316 600.575163,66.6363262 C597.850394,70.3519209 596.488029,75.330743 596.488029,81.572942 L596.488029,119.917687 Z" id="fission" fill="#1E2347"></path>
            <path d="M42.1340284,108.907507 C44.9527743,103.393474 50.6889803,99.6185664 57.3068632,99.6185664 C66.7121198,99.6185664 74.3365868,107.243033 74.3365868,116.64829 C74.3365868,126.053547 66.7121198,133.678014 57.3068632,133.678014 C50.6889803,133.678014 44.9527743,129.903106 42.1340284,124.389074 L26.3437293,124.389074 C11.8083327,124.389074 0.0250655478,112.605806 0.0250655478,98.0704097 C0.0250655478,83.5350131 11.8083327,71.751746 26.3437293,71.751746 L63.4447397,71.751746 L57.1792484,62.4628058 L26.3437293,62.4628058 C11.8083327,62.4628058 0.0250655478,50.6795387 0.0250655478,36.144142 C0.0250655478,21.6087454 11.8083327,9.82547827 26.3437293,9.82547827 C34.771875,9.82547827 41.8257942,13.0796767 46.9402008,19.7615307 C47.2737689,20.1973297 48.5554221,22.0566168 51.5748463,26.4687931 L65.4100787,46.9812389 L113.040504,46.9812389 C119.025667,46.9812389 123.877601,42.1293054 123.877601,36.144142 C123.877601,30.1589787 119.025667,25.3070452 113.040504,25.3070452 L97.250205,25.3070452 C94.4314591,30.8210776 88.6952532,34.5959853 82.0773703,34.5959853 C72.6721136,34.5959853 65.0476466,26.9715184 65.0476466,17.5662617 C65.0476466,8.16100508 72.6721136,0.536538111 82.0773703,0.536538111 C88.6952532,0.536538111 94.4314591,4.31144587 97.250205,9.82547827 L113.040504,9.82547827 C127.575901,9.82547827 139.359168,21.6087454 139.359168,36.144142 C139.359168,50.6795387 127.575901,62.4628058 113.040504,62.4628058 L75.8520844,62.4628058 L82.1172878,71.751746 L113.040504,71.751746 C127.575901,71.751746 139.359168,83.5350131 139.359168,98.0704097 C139.359168,112.605806 127.575901,124.389074 113.040504,124.389074 C104.994564,124.389074 97.5302404,120.745979 92.2725681,114.220579 L88.4432395,108.813416 L73.8872251,87.2333129 L26.3437293,87.2333129 C20.358566,87.2333129 15.5066325,92.0852464 15.5066325,98.0704097 C15.5066325,104.055573 20.358566,108.907507 26.3437293,108.907507 L42.1340284,108.907507 Z M101.176309,100.009105 L104.606849,104.877006 C106.658668,107.413855 109.719005,108.907507 113.040504,108.907507 C119.025667,108.907507 123.877601,104.055573 123.877601,98.0704097 C123.877601,92.0852464 119.025667,87.2333129 113.040504,87.2333129 L92.5592935,87.2333129 L101.176309,100.009105 Z M38.7694636,35.1692733 C36.334412,31.6112718 34.7066638,29.2499067 34.6465182,29.1713279 C32.5585016,26.4433824 30.0953357,25.3070452 26.3437293,25.3070452 C20.358566,25.3070452 15.5066325,30.1589787 15.5066325,36.144142 C15.5066325,42.1293054 20.358566,46.9812389 26.3437293,46.9812389 L46.736763,46.9812389 L38.7694636,35.1692733 Z" id="Combined-Shape" fill="url(#linearGradient-1)"></path>
        </g>
    </g>
</svg>